<svg xmlns="http://www.w3.org/2000/svg" width="25" height="24" viewBox="0 0 25 24">
  <metadata><?xpacket begin="﻿" id="W5M0MpCehiHzreSzNTczkc9d"?>
<x:xmpmeta xmlns:x="adobe:ns:meta/" x:xmptk="Adobe XMP Core 5.6-c138 79.159824, 2016/09/14-01:09:01        ">
   <rdf:RDF xmlns:rdf="http://www.w3.org/1999/02/22-rdf-syntax-ns#">
      <rdf:Description rdf:about=""/>
   </rdf:RDF>
</x:xmpmeta>
                                                                                                    
                                                                                                    
                                                                                                    
                                                                                                    
                                                                                                    
                                                                                                    
                                                                                                    
                                                                                                    
                                                                                                    
                                                                                                    
                                                                                                    
                                                                                                    
                                                                                                    
                                                                                                    
                                                                                                    
                                                                                                    
                                                                                                    
                                                                                                    
                                                                                                    
                                                                                                    
                           
<?xpacket end="w"?></metadata>
<defs>
    <style>
      .cls-1 {
        fill: #fff;
        fill-rule: evenodd;
      }
    </style>
  </defs>
  <path id="Course_Menu_03" class="cls-1" d="M243,21h5.869a2,2,0,0,1,2,2v5.909a2,2,0,0,1-2,2H243a2,2,0,0,1-2-2V23A2,2,0,0,1,243,21Zm15.13,0H264a2,2,0,0,1,2,2v5.909a2,2,0,0,1-2,2h-5.87a2,2,0,0,1-2-2V23A2,2,0,0,1,258.13,21Zm0,14.091H264a2,2,0,0,1,2,2V43a2,2,0,0,1-2,2h-5.87a2,2,0,0,1-2-2V37.091A2,2,0,0,1,258.13,35.091Zm-15.13,0h5.869a2,2,0,0,1,2,2V43a2,2,0,0,1-2,2H243a2,2,0,0,1-2-2V37.091A2,2,0,0,1,243,35.091Z" transform="translate(-241 -21)"/>
</svg>
